<mxfile host="Electron" agent="Mozilla/5.0 (Windows NT 10.0; Win64; x64) AppleWebKit/537.36 (KHTML, like Gecko) draw.io/26.2.2 Chrome/134.0.6998.178 Electron/35.1.2 Safari/537.36" version="26.2.2">
  <diagram name="Page-1" id="e90eT8TY8IOpnwDhSJ5g">
    <mxGraphModel dx="1044" dy="722" grid="1" gridSize="10" guides="1" tooltips="1" connect="1" arrows="1" fold="1" page="1" pageScale="1" pageWidth="850" pageHeight="1100" math="0" shadow="0">
      <root>
        <mxCell id="0" />
        <mxCell id="1" parent="0" />
        <mxCell id="LOYdyq6rw4rr1MWtCja9-28" value="" style="group" vertex="1" connectable="0" parent="1">
          <mxGeometry x="80" y="160" width="80" height="80" as="geometry" />
        </mxCell>
        <mxCell id="LOYdyq6rw4rr1MWtCja9-23" value="" style="whiteSpace=wrap;html=1;aspect=fixed;fillColor=#000000;strokeColor=none;" vertex="1" parent="LOYdyq6rw4rr1MWtCja9-28">
          <mxGeometry width="80" height="80" as="geometry" />
        </mxCell>
        <mxCell id="LOYdyq6rw4rr1MWtCja9-24" value="" style="endArrow=none;html=1;rounded=0;strokeColor=#CCCCCC;" edge="1" parent="LOYdyq6rw4rr1MWtCja9-28">
          <mxGeometry width="50" height="50" relative="1" as="geometry">
            <mxPoint y="80" as="sourcePoint" />
            <mxPoint as="targetPoint" />
          </mxGeometry>
        </mxCell>
        <mxCell id="LOYdyq6rw4rr1MWtCja9-25" value="" style="endArrow=none;html=1;rounded=0;strokeColor=#808080;" edge="1" parent="LOYdyq6rw4rr1MWtCja9-28">
          <mxGeometry width="50" height="50" relative="1" as="geometry">
            <mxPoint x="79.75999999999999" y="80" as="sourcePoint" />
            <mxPoint x="79.75999999999999" as="targetPoint" />
          </mxGeometry>
        </mxCell>
        <mxCell id="LOYdyq6rw4rr1MWtCja9-26" value="" style="endArrow=none;html=1;rounded=0;strokeColor=#808080;" edge="1" parent="LOYdyq6rw4rr1MWtCja9-28">
          <mxGeometry width="50" height="50" relative="1" as="geometry">
            <mxPoint x="80" y="80" as="sourcePoint" />
            <mxPoint y="80" as="targetPoint" />
          </mxGeometry>
        </mxCell>
        <mxCell id="LOYdyq6rw4rr1MWtCja9-27" value="" style="endArrow=none;html=1;rounded=0;strokeColor=#CCCCCC;" edge="1" parent="LOYdyq6rw4rr1MWtCja9-28">
          <mxGeometry width="50" height="50" relative="1" as="geometry">
            <mxPoint x="80" as="sourcePoint" />
            <mxPoint as="targetPoint" />
          </mxGeometry>
        </mxCell>
        <mxCell id="LOYdyq6rw4rr1MWtCja9-29" value="" style="group" vertex="1" connectable="0" parent="1">
          <mxGeometry x="200" y="160" width="80" height="80" as="geometry" />
        </mxCell>
        <mxCell id="LOYdyq6rw4rr1MWtCja9-30" value="" style="whiteSpace=wrap;html=1;aspect=fixed;fillColor=#000000;strokeColor=none;" vertex="1" parent="LOYdyq6rw4rr1MWtCja9-29">
          <mxGeometry width="80" height="80" as="geometry" />
        </mxCell>
        <mxCell id="LOYdyq6rw4rr1MWtCja9-31" value="" style="endArrow=none;html=1;rounded=0;strokeColor=#CCCCCC;" edge="1" parent="LOYdyq6rw4rr1MWtCja9-29">
          <mxGeometry width="50" height="50" relative="1" as="geometry">
            <mxPoint y="80" as="sourcePoint" />
            <mxPoint as="targetPoint" />
          </mxGeometry>
        </mxCell>
        <mxCell id="LOYdyq6rw4rr1MWtCja9-32" value="" style="endArrow=none;html=1;rounded=0;strokeColor=#808080;" edge="1" parent="LOYdyq6rw4rr1MWtCja9-29">
          <mxGeometry width="50" height="50" relative="1" as="geometry">
            <mxPoint x="79.75999999999999" y="80" as="sourcePoint" />
            <mxPoint x="79.75999999999999" as="targetPoint" />
          </mxGeometry>
        </mxCell>
        <mxCell id="LOYdyq6rw4rr1MWtCja9-33" value="" style="endArrow=none;html=1;rounded=0;strokeColor=#808080;" edge="1" parent="LOYdyq6rw4rr1MWtCja9-29">
          <mxGeometry width="50" height="50" relative="1" as="geometry">
            <mxPoint x="80" y="80" as="sourcePoint" />
            <mxPoint y="80" as="targetPoint" />
          </mxGeometry>
        </mxCell>
        <mxCell id="LOYdyq6rw4rr1MWtCja9-34" value="" style="endArrow=none;html=1;rounded=0;strokeColor=#CCCCCC;" edge="1" parent="LOYdyq6rw4rr1MWtCja9-29">
          <mxGeometry width="50" height="50" relative="1" as="geometry">
            <mxPoint x="80" as="sourcePoint" />
            <mxPoint as="targetPoint" />
          </mxGeometry>
        </mxCell>
        <mxCell id="LOYdyq6rw4rr1MWtCja9-2" value="" style="verticalLabelPosition=bottom;verticalAlign=top;html=1;shape=mxgraph.basic.8_point_star;fillColor=#007FFF;" vertex="1" parent="LOYdyq6rw4rr1MWtCja9-29">
          <mxGeometry x="10" y="10" width="60" height="60" as="geometry" />
        </mxCell>
        <mxCell id="LOYdyq6rw4rr1MWtCja9-10" value="" style="ellipse;whiteSpace=wrap;html=1;fillColor=none;strokeColor=#FFB366;" vertex="1" parent="1">
          <mxGeometry x="110" y="400" width="80" height="80" as="geometry" />
        </mxCell>
        <mxCell id="LOYdyq6rw4rr1MWtCja9-12" value="" style="verticalLabelPosition=bottom;verticalAlign=top;html=1;shape=mxgraph.basic.rect;fillColor2=none;strokeWidth=1;size=20;indent=5;fillColor=#9933FF;" vertex="1" parent="1">
          <mxGeometry x="250" y="380" width="40" height="220" as="geometry" />
        </mxCell>
        <mxCell id="LOYdyq6rw4rr1MWtCja9-13" value="" style="verticalLabelPosition=bottom;verticalAlign=top;html=1;shape=mxgraph.basic.rect;fillColor2=none;strokeWidth=1;size=20;indent=5;fillColor=#9933FF;" vertex="1" parent="1">
          <mxGeometry x="50" y="360" width="220" height="40" as="geometry" />
        </mxCell>
        <mxCell id="LOYdyq6rw4rr1MWtCja9-14" value="" style="ellipse;whiteSpace=wrap;html=1;fillColor=none;strokeColor=#FFB366;" vertex="1" parent="1">
          <mxGeometry x="170" y="460" width="80" height="80" as="geometry" />
        </mxCell>
        <mxCell id="LOYdyq6rw4rr1MWtCja9-15" value="" style="ellipse;whiteSpace=wrap;html=1;fillColor=none;strokeColor=#FFB366;" vertex="1" parent="1">
          <mxGeometry x="110" y="520" width="80" height="80" as="geometry" />
        </mxCell>
        <mxCell id="LOYdyq6rw4rr1MWtCja9-35" value="" style="group" vertex="1" connectable="0" parent="1">
          <mxGeometry x="320" y="160" width="80" height="80" as="geometry" />
        </mxCell>
        <mxCell id="LOYdyq6rw4rr1MWtCja9-36" value="" style="whiteSpace=wrap;html=1;aspect=fixed;fillColor=#000000;strokeColor=none;" vertex="1" parent="LOYdyq6rw4rr1MWtCja9-35">
          <mxGeometry width="80" height="80" as="geometry" />
        </mxCell>
        <mxCell id="LOYdyq6rw4rr1MWtCja9-37" value="" style="endArrow=none;html=1;rounded=0;strokeColor=#CCCCCC;" edge="1" parent="LOYdyq6rw4rr1MWtCja9-35">
          <mxGeometry width="50" height="50" relative="1" as="geometry">
            <mxPoint y="80" as="sourcePoint" />
            <mxPoint as="targetPoint" />
          </mxGeometry>
        </mxCell>
        <mxCell id="LOYdyq6rw4rr1MWtCja9-38" value="" style="endArrow=none;html=1;rounded=0;strokeColor=#808080;" edge="1" parent="LOYdyq6rw4rr1MWtCja9-35">
          <mxGeometry width="50" height="50" relative="1" as="geometry">
            <mxPoint x="79.75999999999999" y="80" as="sourcePoint" />
            <mxPoint x="79.75999999999999" as="targetPoint" />
          </mxGeometry>
        </mxCell>
        <mxCell id="LOYdyq6rw4rr1MWtCja9-39" value="" style="endArrow=none;html=1;rounded=0;strokeColor=#808080;" edge="1" parent="LOYdyq6rw4rr1MWtCja9-35">
          <mxGeometry width="50" height="50" relative="1" as="geometry">
            <mxPoint x="80" y="80" as="sourcePoint" />
            <mxPoint y="80" as="targetPoint" />
          </mxGeometry>
        </mxCell>
        <mxCell id="LOYdyq6rw4rr1MWtCja9-40" value="" style="endArrow=none;html=1;rounded=0;strokeColor=#CCCCCC;" edge="1" parent="LOYdyq6rw4rr1MWtCja9-35">
          <mxGeometry width="50" height="50" relative="1" as="geometry">
            <mxPoint x="80" as="sourcePoint" />
            <mxPoint as="targetPoint" />
          </mxGeometry>
        </mxCell>
        <mxCell id="LOYdyq6rw4rr1MWtCja9-6" value="" style="whiteSpace=wrap;html=1;aspect=fixed;fillColor=#33FF33;" vertex="1" parent="LOYdyq6rw4rr1MWtCja9-35">
          <mxGeometry x="20" y="20" width="40" height="40" as="geometry" />
        </mxCell>
        <mxCell id="LOYdyq6rw4rr1MWtCja9-16" value="" style="ellipse;whiteSpace=wrap;html=1;fillColor=none;strokeColor=#FFB366;" vertex="1" parent="1">
          <mxGeometry x="50" y="460" width="80" height="80" as="geometry" />
        </mxCell>
        <mxCell id="LOYdyq6rw4rr1MWtCja9-17" value="" style="ellipse;whiteSpace=wrap;html=1;fillColor=none;strokeColor=#999999;" vertex="1" parent="1">
          <mxGeometry x="110" y="460" width="80" height="80" as="geometry" />
        </mxCell>
        <mxCell id="LOYdyq6rw4rr1MWtCja9-18" value="" style="whiteSpace=wrap;html=1;aspect=fixed;fillColor=none;strokeColor=#7EA6E0;" vertex="1" parent="1">
          <mxGeometry x="130" y="480" width="40" height="40" as="geometry" />
        </mxCell>
        <mxCell id="LOYdyq6rw4rr1MWtCja9-8" value="" style="verticalLabelPosition=bottom;verticalAlign=top;html=1;shape=mxgraph.basic.arc;startAngle=0.11943740796714754;endAngle=0.8860858697178605;" vertex="1" parent="1">
          <mxGeometry x="110" y="520" width="80" height="80" as="geometry" />
        </mxCell>
        <mxCell id="LOYdyq6rw4rr1MWtCja9-19" value="" style="verticalLabelPosition=bottom;verticalAlign=top;html=1;shape=mxgraph.basic.arc;startAngle=0.11943740796714754;endAngle=0.8860858697178605;rotation=-90;" vertex="1" parent="1">
          <mxGeometry x="170" y="460" width="80" height="80" as="geometry" />
        </mxCell>
        <mxCell id="LOYdyq6rw4rr1MWtCja9-41" value="" style="group" vertex="1" connectable="0" parent="1">
          <mxGeometry x="440" y="160" width="80" height="80" as="geometry" />
        </mxCell>
        <mxCell id="LOYdyq6rw4rr1MWtCja9-42" value="" style="whiteSpace=wrap;html=1;aspect=fixed;fillColor=#000000;strokeColor=none;" vertex="1" parent="LOYdyq6rw4rr1MWtCja9-41">
          <mxGeometry width="80" height="80" as="geometry" />
        </mxCell>
        <mxCell id="LOYdyq6rw4rr1MWtCja9-43" value="" style="endArrow=none;html=1;rounded=0;strokeColor=#CCCCCC;" edge="1" parent="LOYdyq6rw4rr1MWtCja9-41">
          <mxGeometry width="50" height="50" relative="1" as="geometry">
            <mxPoint y="80" as="sourcePoint" />
            <mxPoint as="targetPoint" />
          </mxGeometry>
        </mxCell>
        <mxCell id="LOYdyq6rw4rr1MWtCja9-44" value="" style="endArrow=none;html=1;rounded=0;strokeColor=#808080;" edge="1" parent="LOYdyq6rw4rr1MWtCja9-41">
          <mxGeometry width="50" height="50" relative="1" as="geometry">
            <mxPoint x="79.75999999999999" y="80" as="sourcePoint" />
            <mxPoint x="79.75999999999999" as="targetPoint" />
          </mxGeometry>
        </mxCell>
        <mxCell id="LOYdyq6rw4rr1MWtCja9-45" value="" style="endArrow=none;html=1;rounded=0;strokeColor=#808080;" edge="1" parent="LOYdyq6rw4rr1MWtCja9-41">
          <mxGeometry width="50" height="50" relative="1" as="geometry">
            <mxPoint x="80" y="80" as="sourcePoint" />
            <mxPoint y="80" as="targetPoint" />
          </mxGeometry>
        </mxCell>
        <mxCell id="LOYdyq6rw4rr1MWtCja9-46" value="" style="endArrow=none;html=1;rounded=0;strokeColor=#CCCCCC;" edge="1" parent="LOYdyq6rw4rr1MWtCja9-41">
          <mxGeometry width="50" height="50" relative="1" as="geometry">
            <mxPoint x="80" as="sourcePoint" />
            <mxPoint as="targetPoint" />
          </mxGeometry>
        </mxCell>
        <mxCell id="LOYdyq6rw4rr1MWtCja9-61" value="" style="whiteSpace=wrap;html=1;aspect=fixed;rotation=-45;fillColor=#FFFF33;" vertex="1" parent="LOYdyq6rw4rr1MWtCja9-41">
          <mxGeometry x="20" y="20" width="40" height="40" as="geometry" />
        </mxCell>
        <mxCell id="LOYdyq6rw4rr1MWtCja9-20" value="" style="verticalLabelPosition=bottom;verticalAlign=top;html=1;shape=mxgraph.basic.arc;startAngle=0.11943740796714754;endAngle=0.8860858697178605;rotation=-180;" vertex="1" parent="1">
          <mxGeometry x="110" y="400" width="80" height="80" as="geometry" />
        </mxCell>
        <mxCell id="LOYdyq6rw4rr1MWtCja9-21" value="" style="verticalLabelPosition=bottom;verticalAlign=top;html=1;shape=mxgraph.basic.arc;startAngle=0.11943740796714754;endAngle=0.8860858697178605;rotation=90;" vertex="1" parent="1">
          <mxGeometry x="50" y="460" width="80" height="80" as="geometry" />
        </mxCell>
        <mxCell id="LOYdyq6rw4rr1MWtCja9-47" value="" style="group" vertex="1" connectable="0" parent="1">
          <mxGeometry x="560" y="160" width="80" height="80" as="geometry" />
        </mxCell>
        <mxCell id="LOYdyq6rw4rr1MWtCja9-48" value="" style="whiteSpace=wrap;html=1;aspect=fixed;fillColor=#000000;strokeColor=none;" vertex="1" parent="LOYdyq6rw4rr1MWtCja9-47">
          <mxGeometry width="80" height="80" as="geometry" />
        </mxCell>
        <mxCell id="LOYdyq6rw4rr1MWtCja9-49" value="" style="endArrow=none;html=1;rounded=0;strokeColor=#CCCCCC;" edge="1" parent="LOYdyq6rw4rr1MWtCja9-47">
          <mxGeometry width="50" height="50" relative="1" as="geometry">
            <mxPoint y="80" as="sourcePoint" />
            <mxPoint as="targetPoint" />
          </mxGeometry>
        </mxCell>
        <mxCell id="LOYdyq6rw4rr1MWtCja9-50" value="" style="endArrow=none;html=1;rounded=0;strokeColor=#808080;" edge="1" parent="LOYdyq6rw4rr1MWtCja9-47">
          <mxGeometry width="50" height="50" relative="1" as="geometry">
            <mxPoint x="79.75999999999999" y="80" as="sourcePoint" />
            <mxPoint x="79.75999999999999" as="targetPoint" />
          </mxGeometry>
        </mxCell>
        <mxCell id="LOYdyq6rw4rr1MWtCja9-51" value="" style="endArrow=none;html=1;rounded=0;strokeColor=#808080;" edge="1" parent="LOYdyq6rw4rr1MWtCja9-47">
          <mxGeometry width="50" height="50" relative="1" as="geometry">
            <mxPoint x="80" y="80" as="sourcePoint" />
            <mxPoint y="80" as="targetPoint" />
          </mxGeometry>
        </mxCell>
        <mxCell id="LOYdyq6rw4rr1MWtCja9-52" value="" style="endArrow=none;html=1;rounded=0;strokeColor=#CCCCCC;" edge="1" parent="LOYdyq6rw4rr1MWtCja9-47">
          <mxGeometry width="50" height="50" relative="1" as="geometry">
            <mxPoint x="80" as="sourcePoint" />
            <mxPoint as="targetPoint" />
          </mxGeometry>
        </mxCell>
        <mxCell id="LOYdyq6rw4rr1MWtCja9-3" value="" style="verticalLabelPosition=bottom;verticalAlign=top;html=1;shape=mxgraph.basic.4_point_star_2;dx=0.8;fillColor=#FF9933;" vertex="1" parent="LOYdyq6rw4rr1MWtCja9-47">
          <mxGeometry x="10" y="10" width="60" height="60" as="geometry" />
        </mxCell>
        <mxCell id="LOYdyq6rw4rr1MWtCja9-53" value="" style="group" vertex="1" connectable="0" parent="1">
          <mxGeometry x="680" y="160" width="80" height="80" as="geometry" />
        </mxCell>
        <mxCell id="LOYdyq6rw4rr1MWtCja9-54" value="" style="whiteSpace=wrap;html=1;aspect=fixed;fillColor=#000000;strokeColor=none;" vertex="1" parent="LOYdyq6rw4rr1MWtCja9-53">
          <mxGeometry width="80" height="80" as="geometry" />
        </mxCell>
        <mxCell id="LOYdyq6rw4rr1MWtCja9-55" value="" style="endArrow=none;html=1;rounded=0;strokeColor=#CCCCCC;" edge="1" parent="LOYdyq6rw4rr1MWtCja9-53">
          <mxGeometry width="50" height="50" relative="1" as="geometry">
            <mxPoint y="80" as="sourcePoint" />
            <mxPoint as="targetPoint" />
          </mxGeometry>
        </mxCell>
        <mxCell id="LOYdyq6rw4rr1MWtCja9-56" value="" style="endArrow=none;html=1;rounded=0;strokeColor=#808080;" edge="1" parent="LOYdyq6rw4rr1MWtCja9-53">
          <mxGeometry width="50" height="50" relative="1" as="geometry">
            <mxPoint x="79.75999999999999" y="80" as="sourcePoint" />
            <mxPoint x="79.75999999999999" as="targetPoint" />
          </mxGeometry>
        </mxCell>
        <mxCell id="LOYdyq6rw4rr1MWtCja9-57" value="" style="endArrow=none;html=1;rounded=0;strokeColor=#808080;" edge="1" parent="LOYdyq6rw4rr1MWtCja9-53">
          <mxGeometry width="50" height="50" relative="1" as="geometry">
            <mxPoint x="80" y="80" as="sourcePoint" />
            <mxPoint y="80" as="targetPoint" />
          </mxGeometry>
        </mxCell>
        <mxCell id="LOYdyq6rw4rr1MWtCja9-58" value="" style="endArrow=none;html=1;rounded=0;strokeColor=#CCCCCC;" edge="1" parent="LOYdyq6rw4rr1MWtCja9-53">
          <mxGeometry width="50" height="50" relative="1" as="geometry">
            <mxPoint x="80" as="sourcePoint" />
            <mxPoint as="targetPoint" />
          </mxGeometry>
        </mxCell>
        <mxCell id="LOYdyq6rw4rr1MWtCja9-4" value="" style="ellipse;whiteSpace=wrap;html=1;fillColor=#FF3333;" vertex="1" parent="LOYdyq6rw4rr1MWtCja9-53">
          <mxGeometry x="10" y="10" width="60" height="60" as="geometry" />
        </mxCell>
        <mxCell id="LOYdyq6rw4rr1MWtCja9-64" value="Trying to create a clover shape here" style="text;html=1;align=center;verticalAlign=middle;whiteSpace=wrap;rounded=0;" vertex="1" parent="1">
          <mxGeometry x="40" y="320" width="230" height="30" as="geometry" />
        </mxCell>
      </root>
    </mxGraphModel>
  </diagram>
</mxfile>
